<svg width="7" height="10" viewBox="0 0 7 10" fill="none" xmlns="http://www.w3.org/2000/svg">
<path d="M6.18544 8.43683V9.20483H0.293439V8.59283L3.78544 5.17283C4.22544 4.74083 4.52144 4.36883 4.67344 4.05683C4.83344 3.73683 4.91344 3.41683 4.91344 3.09683C4.91344 2.60083 4.74144 2.21683 4.39744 1.94483C4.06144 1.66483 3.57744 1.52483 2.94544 1.52483C1.96144 1.52483 1.19744 1.83683 0.65344 2.46083L0.0414395 1.93283C0.369439 1.54883 0.78544 1.25283 1.28944 1.04483C1.80144 0.836834 2.37744 0.732834 3.01744 0.732834C3.87344 0.732834 4.54944 0.936834 5.04544 1.34483C5.54944 1.74483 5.80144 2.29683 5.80144 3.00083C5.80144 3.43283 5.70544 3.84883 5.51344 4.24883C5.32144 4.64883 4.95744 5.10883 4.42144 5.62883L1.56544 8.43683H6.18544Z" fill="#222222" fill-opacity="0.5"/>
</svg>
