<svg width="16" height="13" viewBox="0 0 16 13" fill="none" xmlns="http://www.w3.org/2000/svg">
<path opacity="0.49628" fill-rule="evenodd" clip-rule="evenodd" d="M1.14813 0.223145H14.4801C14.8998 0.223145 15.2208 0.593009 15.2207 1.0767V6.76718C15.2207 7.25087 14.8998 7.62074 14.4801 7.62074H1.14813C0.728411 7.62074 0.407471 7.25087 0.407471 6.76718V1.0767C0.407471 0.593009 0.728411 0.223145 1.14813 0.223145ZM14.4801 7.05169C14.6282 7.05169 14.727 6.93789 14.727 6.76718H14.727V1.0767C14.727 0.905992 14.6282 0.792195 14.4801 0.792195H1.14813C1.0247 0.792195 0.90125 0.905992 0.90125 1.0767V6.76718C0.90125 6.93789 0.999994 7.05169 1.14813 7.05169H14.4801Z" fill="#222222"/>
<path opacity="0.49628" d="M6.82659 2.78386H8.80171C8.94984 2.78386 9.04858 2.67006 9.04858 2.49935C9.04858 2.32864 8.94984 2.21484 8.80171 2.21484H6.82659C6.67846 2.21484 6.57971 2.32864 6.57971 2.49935C6.57971 2.67006 6.67846 2.78386 6.82659 2.78386Z" fill="#222222"/>
<path opacity="0.49628" d="M13.9863 5.91364H1.64189C1.49376 5.91364 1.39502 6.02743 1.39502 6.19814C1.39502 6.36886 1.49376 6.48265 1.64189 6.48265H13.9863C14.1344 6.48265 14.2332 6.36886 14.2332 6.19814C14.2332 6.02743 14.1344 5.91364 13.9863 5.91364Z" fill="#222222"/>
<path opacity="0.49628" d="M13.9863 4.77551H1.64189C1.49376 4.77551 1.39502 4.88931 1.39502 5.06002C1.39502 5.23073 1.49376 5.34453 1.64189 5.34453H13.9863C14.1344 5.34453 14.2332 5.23073 14.2332 5.06002C14.2332 4.88931 14.1344 4.77551 13.9863 4.77551Z" fill="#222222"/>
<path opacity="0.49628" d="M7.93759 9.64088C7.69072 9.49861 7.56727 9.3279 7.56727 9.18563C7.56727 9.04336 7.7154 8.87264 7.91291 8.70193C8.03637 8.64502 8.06105 8.4743 8.01166 8.33207C7.96227 8.1898 7.81414 8.13291 7.69072 8.21827C7.29568 8.47434 7.07349 8.81576 7.07349 9.18566C7.07349 9.55553 7.29568 9.89698 7.69072 10.1815C7.93759 10.3238 8.06105 10.4945 8.06105 10.6367C8.06105 10.779 7.91291 10.9497 7.69072 11.092C7.56727 11.1489 7.51791 11.3196 7.59197 11.4618C7.64136 11.5472 7.71543 11.6041 7.81417 11.6041C7.86356 11.6041 7.88824 11.6041 7.93762 11.5757C8.33266 11.3196 8.55485 10.9782 8.55485 10.6083C8.55485 10.2384 8.33263 9.86851 7.93759 9.64088Z" fill="#222222"/>
<path opacity="0.49628" d="M5.22177 10.2099C4.9749 10.0676 4.85145 9.89693 4.85145 9.75466C4.85145 9.61239 4.99958 9.44167 5.19709 9.27096C5.32055 9.21405 5.3699 9.04334 5.29584 8.9011C5.24645 8.75883 5.09832 8.70195 4.9749 8.7873C4.57986 9.04337 4.35767 9.38479 4.35767 9.75469C4.35767 10.1246 4.57986 10.466 4.9749 10.7505C5.22177 10.8928 5.34523 11.0635 5.34523 11.2058C5.34523 11.348 5.19709 11.5188 4.9749 11.661C4.85145 11.7179 4.80209 11.8887 4.87615 12.0309C4.92554 12.1163 4.99961 12.1732 5.09835 12.1732C5.14774 12.1732 5.17242 12.1732 5.2218 12.1447C5.61684 11.8887 5.83903 11.5472 5.83903 11.1773C5.83903 10.8074 5.61681 10.4375 5.22177 10.2099Z" fill="#222222"/>
<path opacity="0.49628" d="M10.6533 10.2099C10.4064 10.0676 10.283 9.89693 10.283 9.75466C10.283 9.61239 10.4311 9.44167 10.6286 9.27096C10.7521 9.21405 10.7767 9.04334 10.7274 8.9011C10.678 8.75883 10.5298 8.70195 10.4064 8.7873C10.0114 9.04337 9.78918 9.38479 9.78918 9.75469C9.78918 10.1246 10.0114 10.466 10.4064 10.7505C10.6533 10.8928 10.7767 11.0635 10.7767 11.2058C10.7767 11.348 10.6286 11.5188 10.4064 11.661C10.283 11.7179 10.2336 11.8887 10.3077 12.0309C10.3571 12.1163 10.4311 12.1732 10.5299 12.1732C10.5793 12.1732 10.6039 12.1732 10.6533 12.1447C11.0484 11.8887 11.2706 11.5472 11.2706 11.1773C11.2706 10.8074 11.0483 10.4375 10.6533 10.2099Z" fill="#222222"/>
</svg>
