<svg width="19" height="16" viewBox="0 0 19 16" fill="none" xmlns="http://www.w3.org/2000/svg">
<g clip-path="url(#clip0_1_1949)">
<path opacity="0.499209" fill-rule="evenodd" clip-rule="evenodd" d="M10.201 8.73391H16.22C16.3878 8.73391 16.5239 8.89132 16.5239 9.08547V10.2464C16.5239 10.4078 16.4299 10.5437 16.3018 10.5851V11.5977C16.3018 12.4157 15.8535 13.1148 15.2263 13.3837L15.3837 13.6597C15.4761 13.8218 15.4374 14.0398 15.2973 14.1468C15.2458 14.1861 15.1877 14.2049 15.1302 14.2049C15.0316 14.2049 14.9347 14.1493 14.8763 14.0469L14.5654 13.5017H8.06971L7.75881 14.0469C7.7004 14.1493 7.60358 14.2049 7.50486 14.2049C7.44741 14.2049 7.38934 14.1861 7.33779 14.1468C7.19769 14.0398 7.159 13.8218 7.25146 13.6597L7.40885 13.3837C6.78156 13.1148 6.33327 12.4157 6.33327 11.5977V10.5851C6.20516 10.5437 6.11121 10.4078 6.11121 10.2464V9.08547C6.11121 8.89132 6.24728 8.73391 6.41513 8.73391H6.73849V3.53337C6.73849 2.8008 7.25369 2.20483 7.88698 2.20483C8.37827 2.20483 8.81503 2.56617 8.97382 3.10399L9.09058 3.50116C9.71652 3.45187 10.3114 3.91019 10.494 4.6349L10.5843 4.9934C10.6068 5.08291 10.5977 5.17915 10.559 5.26087C10.5202 5.34262 10.4549 5.40321 10.3775 5.42929L8.33936 6.11625C8.18352 6.17273 8.00489 6.05913 7.96255 5.87704L7.87227 5.51854C7.69211 4.80326 7.9713 4.05736 8.50822 3.70408L8.39848 3.33079C8.32386 3.07804 8.11823 2.90796 7.88698 2.90796C7.58885 2.90796 7.34633 3.18851 7.34633 3.53337V8.73391H7.95478C7.97469 8.56202 8.10164 8.42937 8.25567 8.42937H9.90009C10.0541 8.42937 10.1811 8.56204 10.201 8.73391ZM9.91571 4.85257L9.91042 4.83159C9.81412 4.44923 9.51095 4.20035 9.18281 4.20035C9.11283 4.20035 9.04171 4.21167 8.97124 4.23544C8.57021 4.3706 8.33899 4.85796 8.45585 5.32186L8.46114 5.34283L9.91571 4.85257ZM8.55959 9.13249H9.59617V11.4051H8.55959V9.13249ZM15.694 10.5033C15.694 10.2986 15.7818 10.1173 15.9161 10.0069H15.9161V9.43704H10.204V11.7567C10.204 11.9508 10.068 12.1083 9.90011 12.1083H8.25569C8.08785 12.1083 7.95177 11.9508 7.95177 11.7567V9.43704H6.71905V10.0069C6.85333 10.1173 6.94111 10.2987 6.94111 10.5033V11.5977C6.94111 12.2599 7.40681 12.7986 7.97923 12.7986H14.6559C15.2283 12.7986 15.694 12.2599 15.694 11.5977V10.5033Z" fill="#222222"/>
<path d="M2.98911 3.80483V12.2048H2.12511V4.57283H0.145109V3.80483H2.98911Z" fill="#222222" fill-opacity="0.5"/>
</g>
<defs>
<clipPath id="clip0_1_1949">
<rect width="18" height="15" fill="white" transform="translate(0.0371094 0.204834)"/>
</clipPath>
</defs>
</svg>
