<svg width="15" height="12" viewBox="0 0 15 12" fill="none" xmlns="http://www.w3.org/2000/svg">
<path opacity="0.5" fill-rule="evenodd" clip-rule="evenodd" d="M0.928184 11.4261C0.928184 11.6037 0.803255 11.7476 0.649273 11.7476C0.49529 11.7476 0.370361 11.6037 0.370361 11.4261V1.06899C0.370361 0.891532 0.49529 0.747559 0.649273 0.747559C0.803255 0.747559 0.928184 0.891532 0.928184 1.06899V6.80917H13.6961V5.3547C13.6961 5.17725 13.8211 5.03327 13.975 5.03327C14.129 5.03327 14.254 5.17725 14.254 5.3547V11.4261C14.254 11.6037 14.129 11.7476 13.975 11.7476C13.8211 11.7476 13.6961 11.6037 13.6961 11.4261V9.23774H0.928184V11.4261ZM13.6961 8.59488V7.45202H0.928184V8.59488H13.6961Z" fill="#222222"/>
<path opacity="0.5" fill-rule="evenodd" clip-rule="evenodd" d="M1.75562 4.63062C1.75562 3.6641 2.43546 2.88062 3.27413 2.88062C4.11242 2.88173 4.79168 3.66466 4.79265 4.63062C4.79265 5.59713 4.11281 6.38062 3.27413 6.38062C2.43546 6.38062 1.75562 5.59713 1.75562 4.63062ZM2.31344 4.63062C2.31344 5.24211 2.74352 5.73776 3.27413 5.73776C3.80445 5.73709 4.23425 5.24189 4.23483 4.63062C4.23483 4.01923 3.80465 3.52347 3.27413 3.52347C2.74352 3.52347 2.31344 4.01923 2.31344 4.63062Z" fill="#222222"/>
<path opacity="0.5" fill-rule="evenodd" clip-rule="evenodd" d="M12.6934 6.38058H5.56565C5.41167 6.38058 5.28674 6.23683 5.28674 6.05915V2.84487C5.28674 2.66741 5.41167 2.52344 5.56565 2.52344H9.90428C11.598 2.52567 12.9706 4.10748 12.9723 6.05915C12.9723 6.23683 12.8476 6.38058 12.6934 6.38058ZM9.90428 3.16629H5.84457V5.73772H12.399C12.2555 4.27455 11.1821 3.1683 9.90428 3.16629Z" fill="#222222"/>
</svg>
