<svg width="14" height="13" viewBox="0 0 14 13" fill="none" xmlns="http://www.w3.org/2000/svg">
<path opacity="0.504999" fill-rule="evenodd" clip-rule="evenodd" d="M12.3641 6.44483V7.40483H13.1971C13.3121 7.40483 13.4054 7.51229 13.4054 7.64483V8.60483C13.4054 8.73737 13.3121 8.84483 13.1971 8.84483H12.3641V11.9648C12.3641 12.0974 12.2709 12.2048 12.1559 12.2048H11.3229C11.2078 12.2048 11.1146 12.0974 11.1146 11.9648V8.84483H3.20095V11.9648C3.20095 12.0974 3.1077 12.2048 2.9927 12.2048H2.15968C2.04467 12.2048 1.95143 12.0974 1.95143 11.9648V8.84483H1.11841C1.0034 8.84483 0.910156 8.73737 0.910156 8.60483V7.64483C0.910156 7.51229 1.0034 7.40483 1.11841 7.40483H1.95143V6.44483H1.53492C1.41991 6.44483 1.32666 6.33737 1.32666 6.20483V4.28483C1.32666 4.15229 1.41991 4.04483 1.53492 4.04483H1.95143V3.56483H1.53492C1.41991 3.56483 1.32666 3.45737 1.32666 3.32483V1.40483C1.32666 1.27229 1.41991 1.16483 1.53492 1.16483H1.95143V0.444834C1.95143 0.312294 2.04467 0.204834 2.15968 0.204834H2.9927C3.1077 0.204834 3.20095 0.312294 3.20095 0.444834V1.16483H11.1146V0.444834C11.1146 0.312294 11.2078 0.204834 11.3229 0.204834H12.1559C12.2709 0.204834 12.3641 0.312294 12.3641 0.444834V1.16483H12.7806C12.8956 1.16483 12.9889 1.27229 12.9889 1.40483V3.32483C12.9889 3.45737 12.8956 3.56483 12.7806 3.56483H12.3641V4.04483H12.7806C12.8956 4.04483 12.9889 4.15229 12.9889 4.28483V6.20483C12.9889 6.33737 12.8956 6.44483 12.7806 6.44483H12.3641ZM11.9476 0.684834H11.5311V1.16483H11.9476V0.684834ZM2.36793 0.684834H2.78444V1.16483H2.36793V0.684834ZM1.74317 1.64483V3.08483H12.5724V1.64483H1.74317ZM11.9476 3.56483V4.04483H11.5311V3.56483H11.9476ZM11.1146 4.04483V3.56483H3.20095V4.04483H11.1146ZM2.78444 3.56483V4.04483H2.36793V3.56483H2.78444ZM1.74317 4.52483V5.96483H12.5724V4.52483H1.74317ZM11.9476 6.44483V7.40483H11.5311V6.44483H11.9476ZM11.1146 7.40483V6.44483H3.20095V7.40483H11.1146ZM2.78444 6.44483V7.40483H2.36793V6.44483H2.78444ZM2.36793 11.7248H2.78444V8.84483H2.36793V11.7248ZM11.9476 11.7248H11.5311V8.84483H11.9476V11.7248ZM1.32666 8.36483H12.9889V7.88483H1.32666V8.36483Z" fill="#222222"/>
</svg>
