<svg width="14" height="12" viewBox="0 0 14 12" fill="none" xmlns="http://www.w3.org/2000/svg">
<path fill-rule="evenodd" clip-rule="evenodd" d="M9.89023 0.843384C8.604 0.843384 7.49463 1.61104 6.99447 2.7116C6.49481 1.61104 5.38519 0.843384 4.09958 0.843384C2.34636 0.843384 0.920654 2.26925 0.920654 4.02158C0.920654 4.39122 0.984135 4.74572 1.10097 5.07616C1.2339 5.45226 1.43541 5.7958 1.69086 6.09209C1.79979 6.21885 1.91812 6.3366 2.04585 6.44473L6.89434 11.2595C6.92418 11.2893 6.96304 11.3042 7.00229 11.3042C7.04188 11.3042 7.081 11.2893 7.11106 11.2595L12.1396 6.26487C12.4652 5.93767 12.7208 5.54134 12.8808 5.09899C13.0023 4.76249 13.0688 4.39959 13.0688 4.02158C13.0688 2.26925 11.6427 0.843384 9.89023 0.843384Z" stroke="#979797"/>
</svg>
