<svg width="14" height="16" viewBox="0 0 14 16" fill="none" xmlns="http://www.w3.org/2000/svg">
<path fill-rule="evenodd" clip-rule="evenodd" d="M6.78123 0C8.58879 0 10.2882 0.703906 11.5663 1.98206C12.8445 3.26025 13.5484 4.95962 13.5484 6.76716C13.5484 10.4237 10.091 13.4651 8.23354 15.0991L8.23348 15.0991L8.23196 15.1005C7.97448 15.327 7.7521 15.5226 7.57485 15.6882C7.35232 15.896 7.06679 15.9999 6.78119 15.9999C6.49566 15.9999 6.21007 15.896 5.98757 15.6882C5.80998 15.5223 5.58707 15.3262 5.32894 15.0991C3.47148 13.4652 0.0140381 10.4238 0.0140381 6.76716C0.0140381 4.95962 0.717944 3.26025 1.9961 1.98206C3.27423 0.703906 4.97366 0 6.78123 0ZM6.93504 15.0033C7.12285 14.8279 7.35063 14.6275 7.61441 14.3954C9.36066 12.8593 12.6111 9.99997 12.6111 6.76719C12.6111 3.55256 9.99579 0.937281 6.78116 0.937281C3.56651 0.937281 0.951226 3.55256 0.951226 6.76719C0.951226 9.99997 4.20169 12.8593 5.94794 14.3954L5.94924 14.3965C6.21247 14.6281 6.43985 14.8281 6.62732 15.0033C6.71363 15.0838 6.84876 15.0838 6.93504 15.0033Z" fill="#B2D235"/>
<path fill-rule="evenodd" clip-rule="evenodd" d="M3.79895 6.51148C3.79895 4.86708 5.13676 3.5293 6.78117 3.5293C8.42558 3.5293 9.76336 4.86708 9.76336 6.51148C9.76336 8.15589 8.42558 9.49367 6.78117 9.49367C5.13676 9.49367 3.79895 8.15589 3.79895 6.51148ZM4.7362 6.51145C4.7362 7.63902 5.65358 8.55639 6.78117 8.55639C7.90876 8.55639 8.82611 7.63902 8.82611 6.51145C8.82611 5.38389 7.90876 4.46652 6.78117 4.46652C5.65358 4.46652 4.7362 5.38389 4.7362 6.51145Z" fill="#B2D235"/>
</svg>
