<svg width="92" height="18" viewBox="0 0 92 18" fill="none" xmlns="http://www.w3.org/2000/svg">
<path d="M3.422 6.968C4.214 5.736 5.60733 5.12 7.602 5.12V7.738C7.36733 7.694 7.15467 7.672 6.964 7.672C5.89333 7.672 5.05733 7.98733 4.456 8.618C3.85467 9.234 3.554 10.1287 3.554 11.302V17H0.804V5.252H3.422V6.968ZM20.8714 11.192C20.8714 11.3827 20.8568 11.654 20.8274 12.006H11.6094C11.7708 12.8713 12.1888 13.5607 12.8634 14.074C13.5528 14.5727 14.4034 14.822 15.4154 14.822C16.7061 14.822 17.7694 14.3967 18.6054 13.546L20.0794 15.24C19.5514 15.8707 18.8841 16.3473 18.0774 16.67C17.2708 16.9927 16.3614 17.154 15.3494 17.154C14.0588 17.154 12.9221 16.8973 11.9394 16.384C10.9568 15.8707 10.1941 15.1593 9.65144 14.25C9.12344 13.326 8.85944 12.2847 8.85944 11.126C8.85944 9.982 9.1161 8.95533 9.62944 8.046C10.1574 7.122 10.8834 6.40333 11.8074 5.89C12.7314 5.37667 13.7728 5.12 14.9314 5.12C16.0754 5.12 17.0948 5.37667 17.9894 5.89C18.8988 6.38867 19.6028 7.1 20.1014 8.024C20.6148 8.93333 20.8714 9.98933 20.8714 11.192ZM14.9314 7.32C14.0514 7.32 13.3034 7.584 12.6874 8.112C12.0861 8.62533 11.7194 9.31467 11.5874 10.18H18.2534C18.1361 9.32933 17.7768 8.64 17.1754 8.112C16.5741 7.584 15.8261 7.32 14.9314 7.32ZM34.2981 5.252L29.2601 17H26.4221L21.3841 5.252H24.2441L27.8961 13.964L31.6581 5.252H34.2981ZM46.7386 11.192C46.7386 11.3827 46.724 11.654 46.6946 12.006H37.4766C37.638 12.8713 38.056 13.5607 38.7306 14.074C39.42 14.5727 40.2706 14.822 41.2826 14.822C42.5733 14.822 43.6366 14.3967 44.4726 13.546L45.9466 15.24C45.4186 15.8707 44.7513 16.3473 43.9446 16.67C43.138 16.9927 42.2286 17.154 41.2166 17.154C39.926 17.154 38.7893 16.8973 37.8066 16.384C36.824 15.8707 36.0613 15.1593 35.5186 14.25C34.9906 13.326 34.7266 12.2847 34.7266 11.126C34.7266 9.982 34.9833 8.95533 35.4966 8.046C36.0246 7.122 36.7506 6.40333 37.6746 5.89C38.5986 5.37667 39.64 5.12 40.7986 5.12C41.9426 5.12 42.962 5.37667 43.8566 5.89C44.766 6.38867 45.47 7.1 45.9686 8.024C46.482 8.93333 46.7386 9.98933 46.7386 11.192ZM40.7986 7.32C39.9186 7.32 39.1706 7.584 38.5546 8.112C37.9533 8.62533 37.5866 9.31467 37.4546 10.18H44.1206C44.0033 9.32933 43.644 8.64 43.0426 8.112C42.4413 7.584 41.6933 7.32 40.7986 7.32ZM51.9982 6.968C52.7902 5.736 54.1835 5.12 56.1782 5.12V7.738C55.9435 7.694 55.7308 7.672 55.5402 7.672C54.4695 7.672 53.6335 7.98733 53.0322 8.618C52.4308 9.234 52.1302 10.1287 52.1302 11.302V17H49.3802V5.252H51.9982V6.968ZM58.511 5.252H61.261V17H58.511V5.252ZM59.897 3.316C59.3984 3.316 58.9804 3.162 58.643 2.854C58.3057 2.53133 58.137 2.13533 58.137 1.666C58.137 1.19667 58.3057 0.807999 58.643 0.499999C58.9804 0.177333 59.3984 0.0159997 59.897 0.0159997C60.3957 0.0159997 60.8137 0.169999 61.151 0.477999C61.4884 0.771333 61.657 1.14533 61.657 1.6C61.657 2.084 61.4884 2.49467 61.151 2.832C60.8284 3.15467 60.4104 3.316 59.897 3.316ZM69.6444 2.744C68.4857 2.744 67.9064 3.37467 67.9064 4.636V5.34H71.1404V7.54H67.9944V17H65.2444V7.54H63.3084V5.34H65.2444V4.592C65.2444 3.33067 65.6111 2.34067 66.3444 1.622C67.0777 0.888666 68.1117 0.522 69.4464 0.522C70.5024 0.522 71.3311 0.734666 71.9324 1.16L71.1624 3.228C70.6931 2.90533 70.1871 2.744 69.6444 2.744ZM74.7484 5.252H77.4984V17H74.7484V5.252ZM76.1344 3.316C75.6357 3.316 75.2177 3.162 74.8804 2.854C74.5431 2.53133 74.3744 2.13533 74.3744 1.666C74.3744 1.19667 74.5431 0.807999 74.8804 0.499999C75.2177 0.177333 75.6357 0.0159997 76.1344 0.0159997C76.6331 0.0159997 77.0511 0.169999 77.3884 0.477999C77.7257 0.771333 77.8944 1.14533 77.8944 1.6C77.8944 2.084 77.7257 2.49467 77.3884 2.832C77.0657 3.15467 76.6477 3.316 76.1344 3.316Z" fill="#222222"/>
<path d="M91.1446 10.642H87.3166V14.382H84.4786V10.642H80.6726V7.958H84.4786V4.218H87.3166V7.958H91.1446V10.642Z" fill="#B2D235"/>
</svg>
