<svg width="11" height="12" viewBox="0 0 11 12" fill="none" xmlns="http://www.w3.org/2000/svg">
<path opacity="0.501674" fill-rule="evenodd" clip-rule="evenodd" d="M6.9761 2.76095C6.9761 1.70677 7.83974 0.843384 8.89423 0.843384C9.94871 0.843384 10.8124 1.70677 10.8124 2.76095C10.8124 3.81512 9.94871 4.67851 8.89423 4.67851C8.29646 4.67851 7.78196 4.38432 7.42941 3.95194L4.14386 5.59503C4.15279 5.6304 4.16265 5.66545 4.17251 5.70047C4.20424 5.81323 4.23592 5.92577 4.23592 6.0482C4.23592 6.17064 4.20424 6.28317 4.17251 6.39593C4.16265 6.43096 4.15279 6.46601 4.14386 6.50138L7.42941 8.14447C7.78196 7.71208 8.29646 7.41789 8.89423 7.41789C9.94871 7.41789 10.8124 8.28128 10.8124 9.33546C10.8124 10.3896 9.94871 11.253 8.89423 11.253C7.83974 11.253 6.9761 10.3896 6.9761 9.33546C6.9761 9.21302 7.00777 9.10049 7.03951 8.98773C7.04937 8.9527 7.05923 8.91765 7.06815 8.88228L3.78261 7.23919C3.43006 7.67158 2.91556 7.96577 2.31779 7.96577C1.2633 7.96577 0.399658 7.10238 0.399658 6.0482C0.399658 4.99403 1.2633 4.13064 2.31779 4.13064C2.91556 4.13064 3.43006 4.42483 3.78261 4.85722L7.06815 3.21412C7.05923 3.17875 7.04937 3.1437 7.03951 3.10868C7.00777 2.99592 6.9761 2.88338 6.9761 2.76095ZM9.9903 2.76095C9.9903 2.15091 9.50444 1.6652 8.89423 1.6652C8.28401 1.6652 7.79815 2.15091 7.79815 2.76095C7.79815 3.37098 8.28401 3.8567 8.89423 3.8567C9.50444 3.8567 9.9903 3.37098 9.9903 2.76095ZM2.31779 4.95245C2.928 4.95245 3.41386 5.43817 3.41386 6.0482C3.41386 6.65824 2.928 7.14395 2.31779 7.14395C1.70757 7.14395 1.22171 6.65824 1.22171 6.0482C1.22171 5.43817 1.70757 4.95245 2.31779 4.95245ZM9.9903 9.33546C9.9903 8.72542 9.50444 8.23971 8.89423 8.23971C8.28401 8.23971 7.79815 8.72542 7.79815 9.33546C7.79815 9.94549 8.28401 10.4312 8.89423 10.4312C9.50444 10.4312 9.9903 9.94549 9.9903 9.33546Z" fill="#222222"/>
</svg>
