<svg width="13" height="13" viewBox="0 0 13 13" fill="none" xmlns="http://www.w3.org/2000/svg">
<path opacity="0.500744" d="M12.5366 3.65084C9.39095 -0.92636 3.38489 -0.934291 0.23375 3.65084C0.0811474 3.87286 0.113655 4.19546 0.30633 4.37129C0.499006 4.54713 0.77888 4.5097 0.931483 4.28765C3.72122 0.228396 9.04492 0.22218 11.8389 4.28765C11.9916 4.50986 12.2715 4.54702 12.4641 4.37129C12.6567 4.1954 12.6892 3.87286 12.5366 3.65084Z" fill="#222222"/>
<path opacity="0.500744" d="M2.26984 5.50538C2.11719 5.72737 2.1496 6.04994 2.34223 6.22583C2.53493 6.40181 2.81478 6.36435 2.96738 6.14241C4.7164 3.59882 8.05067 3.59415 9.80291 6.14241C9.95559 6.3644 10.2355 6.40175 10.4281 6.22583C10.6207 6.04991 10.6531 5.72737 10.5004 5.50538C8.39502 2.44341 4.37849 2.43874 2.26984 5.50538Z" fill="#222222"/>
<path opacity="0.500744" d="M4.30484 7.3598C4.15231 7.5819 4.18486 7.90441 4.37759 8.08022C4.57031 8.256 4.85018 8.21849 5.00271 7.99638C5.70862 6.96853 7.06047 6.96681 7.76758 7.99638C7.92013 8.21849 8.19996 8.25603 8.39271 8.08022C8.58543 7.90441 8.61796 7.5819 8.46546 7.3598C7.40343 5.81343 5.36859 5.81096 4.30484 7.3598Z" fill="#222222"/>
<ellipse opacity="0.500744" cx="6.38531" cy="10.3775" rx="1.12128" ry="1.2922" stroke="#222222" stroke-width="0.8"/>
</svg>
